<svg height="75" viewBox="0 0 75 75" width="75" xmlns="http://www.w3.org/2000/svg"><g fill="#fff" fill-rule="evenodd" transform="translate(0 13.736264)"><path d="m22.8463837 18.2119173c6.5756797.1478113 10.585751 1.8020104 13.0298545 3.5887422l3.9291669 17.6234408c-4.8169735 1.3742664-9.2153954 4.1561307-12.6728799 7.9003587-5.9346575-9.1046945-13.627732-14.2752618-26.92576083-19.445829l.0576431-.0724863.08436419-.1026121c1.1105031-1.331793 8.72437099-9.8023542 22.49761204-9.4916143z"/><path d="m74.9439846 1.1046788c-8.1318682 11.7830147-14.8351649 24.4553135-17.2527473 38.4615385-2.8571429-1.0004447-5.9340659-1.5562473-9.1208791-1.5562473-1.3812656 0-2.7625312.1317192-4.0892393.3399693l-2.9788221-18.0144913c6.444022-11.67552841 19.228784-18.40456144 32.9707606-19.20539059z"/><path d="m36.8571258 21.719357 3.6273911-.8052884 2.5793903 17.8073684c-.7020757.1150413-1.4041514.2300825-2.1062271.4601649z"/><path d="m70.1594803.55538282c-13.7069528 2.06173881-23.764449 8.35192747-29.6753948 19.07620888l-.2624906.5200262-3.7425669.8013234c-2.8059684-1.7413364-5.5070193-3.8778459-12.5979079-4.0336896-7.5995702-.1676376-12.2045639 1.9616824-16.46353768 3.7996974l.57415955-.5673312c4.03313533-3.936109 8.45564043-7.3737923 14.98104763-8.4391649 4.9512458-.776666 10.8981852.1535901 14.8163388 6.4911269.6044492-19.13367701 23.3058132-18.5735241 32.3703519-17.64819708z"/></g></svg>